# xmcd CD database file
#
# Track frame offsets:
#	150
#	17107
#	34723
#	47793
#	62854
#	83030
#	99474
#	112409
#	131948
#	151172
#
# Disc length: 2381 seconds
#
# Revision: 0
# Processed by: cddbd v1.5.2PL0 Copyright (c) Steve Scherf et al.
# Submitted via: CDex 1.51
#
DISCID=86094b0a
DTITLE=THE MUNGOS BROTHER BLUES BAND - PROMO CD
DYEAR=1999
DGENRE=Blues
TTITLE0=TUROPOLJSKI ZMAJ
TTITLE1=BUDJENJE
TTITLE2=KORAK OD NJE
TTITLE3=SKRIVEN OD POGLEDA
TTITLE4=MALA SOBA
TTITLE5=MOJ PUT
TTITLE6=AKO
TTITLE7=ISTINA
TTITLE8=NESTO O...
TTITLE9=CRNI SURFER
EXTD=YEAR: 1999
EXTT0=
EXTT1=
EXTT2=
EXTT3=
EXTT4=
EXTT5=
EXTT6=
EXTT7=
EXTT8=
EXTT9=
PLAYORDER=
